<svg width="20" height="16" viewBox="0 0 20 16" fill="none" xmlns="http://www.w3.org/2000/svg">
<path d="M0.851562 15.3261V10.3762C0.853715 9.62676 1.14396 8.9086 1.65891 8.37863C2.17386 7.84866 2.87166 7.54995 3.59991 7.54773H15.9675C16.6957 7.54995 17.3935 7.84866 17.9085 8.37863C18.4234 8.9086 18.7137 9.62676 18.7158 10.3762V15.3261M15.2804 7.54773H2.91282V2.95141C2.91418 2.48299 3.09559 2.03415 3.41743 1.70292C3.73927 1.37169 4.17539 1.18499 4.63054 1.18359H14.9368C15.392 1.18499 15.8281 1.37169 16.1499 1.70292C16.4718 2.03415 16.6532 2.48299 16.6546 2.95141V7.54773H15.2804Z" stroke="#573C63" stroke-width="1.11652" stroke-linecap="round" stroke-linejoin="round"/>
<path d="M0.851562 15.3269V14.9813C0.852356 14.7066 0.961194 14.4433 1.1543 14.2491C1.34741 14.0548 1.6091 13.9453 1.88219 13.9445H17.6852C17.9583 13.9453 18.22 14.0548 18.4131 14.2491C18.6062 14.4433 18.715 14.7066 18.7158 14.9813V15.3269M3.59991 7.72392V7.03274C3.60093 6.66644 3.74604 6.31543 4.00352 6.05641C4.26101 5.79739 4.60994 5.65142 4.97408 5.65039H8.40952C8.77366 5.65142 9.12259 5.79739 9.38008 6.05641C9.63756 6.31543 9.78267 6.66644 9.78369 7.03274M9.78369 7.03274V7.72392M9.78369 7.03274C9.78471 6.66644 9.92981 6.31543 10.1873 6.05641C10.4448 5.79739 10.7937 5.65142 11.1579 5.65039H14.5933C14.9574 5.65142 15.3064 5.79739 15.5639 6.05641C15.8213 6.31543 15.9664 6.66644 15.9675 7.03274V7.72392" stroke="#573C63" stroke-width="1.11652" stroke-linecap="round" stroke-linejoin="round"/>
</svg>
