<svg width="21" height="19" viewBox="0 0 21 19" fill="none" xmlns="http://www.w3.org/2000/svg">
<path d="M12.7679 1.59941C12.7679 1.18817 12.9313 0.793773 13.2221 0.502982C13.5129 0.212192 13.9073 0.0488281 14.3185 0.0488281H18.9702C19.3815 0.0488281 19.7759 0.212192 20.0667 0.502982C20.3575 0.793773 20.5208 1.18817 20.5208 1.59941V14.7793C20.5208 15.8074 20.1124 16.7934 19.3854 17.5204C18.6585 18.2474 17.6725 18.6558 16.6444 18.6558H1.91386C1.50262 18.6558 1.10823 18.4924 0.817436 18.2016C0.526645 17.9108 0.363281 17.5164 0.363281 17.1052V12.4535C0.363281 12.0422 0.526645 11.6478 0.817436 11.357C1.10823 11.0663 1.50262 10.9029 1.91386 10.9029H6.5656V7.80173C6.5656 7.39049 6.72897 6.99609 7.01976 6.7053C7.31055 6.41451 7.70494 6.25115 8.11618 6.25115H12.7679V1.59941ZM18.9702 1.59941H14.3185V6.25115C14.3185 6.66239 14.1551 7.05678 13.8643 7.34757C13.5736 7.63836 13.1792 7.80173 12.7679 7.80173H8.11618V10.9029C8.11618 11.3141 7.95282 11.7085 7.66203 11.9993C7.37124 12.2901 6.97684 12.4535 6.5656 12.4535H1.91386V17.1052H16.6444C17.2612 17.1052 17.8528 16.8602 18.289 16.424C18.7252 15.9878 18.9702 15.3962 18.9702 14.7793V1.59941Z" fill="#573C63"/>
</svg>
