<svg width="21" height="21" viewBox="0 0 21 21" fill="none" xmlns="http://www.w3.org/2000/svg">
<path d="M10.1573 20.2228C4.61658 20.2228 0.109375 15.7156 0.109375 10.1749C0.109375 4.63416 4.61658 0.126953 10.1573 0.126953C15.698 0.126953 20.2052 4.63416 20.2052 10.1749C20.2052 15.7156 15.698 20.2228 10.1573 20.2228ZM10.1573 1.56237C5.40606 1.56237 1.54479 5.42364 1.54479 10.1749C1.54479 14.9261 5.40606 18.7874 10.1573 18.7874C14.9085 18.7874 18.7698 14.9261 18.7698 10.1749C18.7698 5.42364 14.9085 1.56237 10.1573 1.56237Z" fill="#573C63"/>
<path d="M8.00469 11.6117H6.56927C6.16735 11.6117 5.85156 11.2959 5.85156 10.8939C5.85156 10.492 6.16735 10.1762 6.56927 10.1762H8.00469C9.19608 10.1762 10.1578 9.21451 10.1578 8.02311C10.1578 6.83172 9.19608 5.86999 8.00469 5.86999H6.56927C6.16735 5.86999 5.85156 5.5542 5.85156 5.15228C5.85156 4.75036 6.16735 4.43457 6.56927 4.43457H8.00469C8.95643 4.43457 9.86919 4.81265 10.5422 5.48563C11.2152 6.15861 11.5932 7.07137 11.5932 8.02311C11.5932 8.97485 11.2152 9.88761 10.5422 10.5606C9.86919 11.2336 8.95643 11.6117 8.00469 11.6117Z" fill="#573C63"/>
<path d="M13.7464 8.74082H6.56927C6.16735 8.74082 5.85156 8.42503 5.85156 8.02311C5.85156 7.62119 6.16735 7.3054 6.56927 7.3054H13.7464C14.1483 7.3054 14.4641 7.62119 14.4641 8.02311C14.4641 8.42503 14.1483 8.74082 13.7464 8.74082ZM13.7464 5.86999H6.56927C6.16735 5.86999 5.85156 5.5542 5.85156 5.15228C5.85156 4.75036 6.16735 4.43457 6.56927 4.43457H13.7464C14.1483 4.43457 14.4641 4.75036 14.4641 5.15228C14.4641 5.5542 14.1483 5.86999 13.7464 5.86999ZM9.4401 15.9179C9.21044 15.9179 8.98077 15.8031 8.83723 15.6021L5.9664 11.2959C5.86728 11.1379 5.83384 10.9474 5.8732 10.7651C5.91256 10.5828 6.0216 10.4231 6.17707 10.3201C6.33254 10.2171 6.52211 10.1789 6.70534 10.2137C6.88856 10.2485 7.05093 10.3535 7.15779 10.5064L10.0286 14.8126C10.2439 15.1428 10.1578 15.5878 9.82767 15.8031C9.69848 15.8892 9.56929 15.9179 9.42575 15.9179H9.4401Z" fill="#573C63"/>
</svg>
