<svg width="18" height="17" viewBox="0 0 18 17" fill="none" xmlns="http://www.w3.org/2000/svg">
<path d="M16.8852 16.9332L11.1909 11.253L12.2791 10.1675L17.9734 15.8477L16.8852 16.9332ZM2.63299 16.9332L1.54377 15.8477L8.68014 8.72903L5.634 5.71092L5.07401 6.26952L4.1017 5.2802V7.12176L3.54171 7.68036L0.853516 4.99885L1.41351 4.44024H3.25966L2.27402 3.47547L4.49452 1.26048C4.7311 1.02449 4.99025 0.849197 5.27195 0.734611C5.55298 0.620708 5.85281 0.563756 6.17144 0.563756C6.48938 0.563756 6.78921 0.620708 7.07092 0.734611C7.35263 0.848515 7.61143 1.02381 7.84732 1.26048L6.15913 2.94448L7.28323 4.06579L6.72323 4.6244L9.76937 7.64251L12.3919 5.02545C12.2312 4.799 12.1198 4.5671 12.0576 4.32975C11.9953 4.09239 11.9642 3.83184 11.9642 3.54811C11.9642 2.71258 12.2545 2.00529 12.835 1.42622C13.4155 0.847151 14.1246 0.557617 14.9622 0.557617C15.1399 0.557617 15.3109 0.570235 15.475 0.595472C15.6404 0.620026 15.8035 0.670498 15.9642 0.746889L13.8401 2.86571L15.6463 4.66737L17.7703 2.54957C17.8503 2.70917 17.902 2.87116 17.9252 3.03554C17.9485 3.2006 17.9601 3.37145 17.9601 3.54811C17.9601 4.38363 17.6695 5.09093 17.0883 5.66999C16.5085 6.24974 15.7998 6.53962 14.9622 6.53962C14.6777 6.53962 14.4165 6.50927 14.1786 6.44856C13.9406 6.38786 13.7081 6.27566 13.4811 6.11197L2.63299 16.9332Z" fill="#573C63"/>
</svg>
