<svg width="22" height="22" viewBox="0 0 22 22" fill="none" xmlns="http://www.w3.org/2000/svg">
<path d="M18.9746 15.9064V6.76292C19.4826 6.63276 19.947 6.37051 20.3208 6.00279C20.6946 5.63508 20.9644 5.17499 21.1029 4.66926C21.2414 4.16353 21.2436 3.63015 21.1093 3.1233C20.9749 2.61645 20.7089 2.15417 20.3381 1.78339C19.9673 1.41262 19.5051 1.14657 18.9982 1.01224C18.4914 0.877916 17.958 0.880105 17.4523 1.01859C16.9465 1.15707 16.4864 1.42691 16.1187 1.80071C15.751 2.17451 15.4888 2.63896 15.3586 3.1469H6.21507C6.08491 2.63896 5.82266 2.17451 5.45494 1.80071C5.08722 1.42691 4.62714 1.15707 4.12141 1.01859C3.61567 0.880105 3.0823 0.877916 2.57545 1.01224C2.0686 1.14657 1.60631 1.41262 1.23554 1.78339C0.864772 2.15417 0.598716 2.61645 0.46439 3.1233C0.330064 3.63015 0.332253 4.16353 0.470734 4.66926C0.609215 5.17499 0.879056 5.63508 1.25286 6.00279C1.62666 6.37051 2.09111 6.63276 2.59905 6.76292V15.9064C2.09111 16.0366 1.62666 16.2989 1.25286 16.6666C0.879056 17.0343 0.609215 17.4944 0.470734 18.0001C0.332253 18.5058 0.330064 19.0392 0.46439 19.5461C0.598716 20.0529 0.864772 20.5152 1.23554 20.886C1.60631 21.2567 2.0686 21.5228 2.57545 21.6571C3.0823 21.7915 3.61567 21.7893 4.12141 21.6508C4.62714 21.5123 5.08722 21.2425 5.45494 20.8687C5.82266 20.4949 6.08491 20.0304 6.21507 19.5225H15.3586C15.4888 20.0304 15.751 20.4949 16.1187 20.8687C16.4864 21.2425 16.9465 21.5123 17.4523 21.6508C17.958 21.7893 18.4914 21.7915 18.9982 21.6571C19.5051 21.5228 19.9673 21.2567 20.3381 20.886C20.7089 20.5152 20.9749 20.0529 21.1093 19.5461C21.2436 19.0392 21.2414 18.5058 21.1029 18.0001C20.9644 17.4944 20.6946 17.0343 20.3208 16.6666C19.947 16.2989 19.4826 16.0366 18.9746 15.9064ZM18.2303 2.40256C18.5247 2.40256 18.8125 2.48987 19.0573 2.65345C19.3022 2.81702 19.493 3.04953 19.6056 3.32155C19.7183 3.59357 19.7478 3.89289 19.6904 4.18167C19.6329 4.47045 19.4911 4.73571 19.2829 4.9439C19.0747 5.1521 18.8095 5.29389 18.5207 5.35133C18.2319 5.40877 17.9326 5.37929 17.6606 5.26661C17.3886 5.15394 17.156 4.96313 16.9925 4.71831C16.8289 4.4735 16.7416 4.18568 16.7416 3.89124C16.7416 3.49642 16.8984 3.11777 17.1776 2.83858C17.4568 2.5594 17.8354 2.40256 18.2303 2.40256ZM1.8547 3.89124C1.8547 3.59681 1.94201 3.30899 2.10559 3.06417C2.26917 2.81936 2.50167 2.62855 2.7737 2.51588C3.04572 2.4032 3.34504 2.37372 3.63382 2.43116C3.9226 2.4886 4.18786 2.63039 4.39605 2.83858C4.60425 3.04678 4.74603 3.31204 4.80348 3.60082C4.86092 3.88959 4.83144 4.18892 4.71876 4.46094C4.60609 4.73296 4.41528 4.96546 4.17046 5.12904C3.92565 5.29262 3.63783 5.37993 3.34339 5.37993C2.94857 5.37993 2.56991 5.22309 2.29073 4.9439C2.01155 4.66472 1.8547 4.28607 1.8547 3.89124ZM3.34339 20.2668C3.04896 20.2668 2.76114 20.1795 2.51632 20.0159C2.27151 19.8523 2.0807 19.6198 1.96802 19.3478C1.85535 19.0758 1.82587 18.7765 1.88331 18.4877C1.94075 18.1989 2.08253 17.9337 2.29073 17.7255C2.49893 17.5173 2.76419 17.3755 3.05296 17.318C3.34174 17.2606 3.64107 17.2901 3.91309 17.4028C4.18511 17.5154 4.41761 17.7062 4.58119 17.951C4.74477 18.1959 4.83208 18.4837 4.83208 18.7781C4.83208 19.1729 4.67524 19.5516 4.39605 19.8308C4.11687 20.11 3.73822 20.2668 3.34339 20.2668ZM15.3586 18.0338H6.21507C6.08131 17.5222 5.81374 17.0555 5.43986 16.6817C5.06598 16.3078 4.59928 16.0402 4.08774 15.9064V6.76292C4.59928 6.62916 5.06598 6.36159 5.43986 5.98771C5.81374 5.61383 6.08131 5.14713 6.21507 4.63559H15.3586C15.4923 5.14713 15.7599 5.61383 16.1338 5.98771C16.5077 6.36159 16.9744 6.62916 17.4859 6.76292V15.9064C16.974 16.0395 16.507 16.3068 16.133 16.6808C15.759 17.0548 15.4916 17.5219 15.3586 18.0338ZM18.2303 20.2668C17.9358 20.2668 17.648 20.1795 17.4032 20.0159C17.1584 19.8523 16.9676 19.6198 16.8549 19.3478C16.7422 19.0758 16.7127 18.7765 16.7702 18.4877C16.8276 18.1989 16.9694 17.9337 17.1776 17.7255C17.3858 17.5173 17.6511 17.3755 17.9398 17.318C18.2286 17.2606 18.5279 17.2901 18.8 17.4028C19.072 17.5154 19.3045 17.7062 19.4681 17.951C19.6316 18.1959 19.719 18.4837 19.719 18.7781C19.7184 19.1728 19.5613 19.5511 19.2823 19.8301C19.0032 20.1092 18.6249 20.2662 18.2303 20.2668Z" fill="#573C63"/>
</svg>
