<svg width="21" height="23" viewBox="0 0 21 23" fill="none" xmlns="http://www.w3.org/2000/svg">
<path d="M13.8399 11.5533C13.8399 11.689 13.8132 11.8234 13.7612 11.9488C13.7093 12.0742 13.6331 12.1882 13.5372 12.2842C13.4412 12.3801 13.3272 12.4563 13.2018 12.5082C13.0764 12.5602 12.942 12.5869 12.8063 12.5869C12.6706 12.5869 12.5362 12.5602 12.4108 12.5082C12.2854 12.4563 12.1714 12.3801 12.0754 12.2842C11.9795 12.1882 11.9033 12.0742 11.8514 11.9488C11.7994 11.8234 11.7727 11.689 11.7727 11.5533C11.7727 11.2792 11.8816 11.0163 12.0754 10.8224C12.2693 10.6286 12.5322 10.5197 12.8063 10.5197C13.0804 10.5197 13.3433 10.6286 13.5372 10.8224C13.731 11.0163 13.8399 11.2792 13.8399 11.5533ZM9.86814 0.547592C9.76776 0.52603 9.66383 0.527174 9.56394 0.550941C9.46406 0.574707 9.37074 0.620494 9.29083 0.684956C9.21091 0.749417 9.14641 0.830923 9.10204 0.923515C9.05767 1.01611 9.03455 1.11744 9.03438 1.22012V21.892C9.03435 21.9948 9.05731 22.0963 9.10159 22.189C9.14588 22.2818 9.21035 22.3635 9.29029 22.4281C9.37023 22.4927 9.46362 22.5386 9.56361 22.5625C9.66359 22.5863 9.76765 22.5875 9.86814 22.5659L19.515 20.4973C19.6691 20.4639 19.8071 20.3786 19.9059 20.2557C20.0048 20.1328 20.0584 19.9798 20.058 19.8221V3.28455C20.0577 3.12713 20.0036 2.97455 19.9045 2.8522C19.8055 2.72984 19.6676 2.64508 19.5136 2.61202L9.86814 0.547592ZM10.4125 21.0389V2.0718L18.6813 3.84269V19.2667L10.4125 21.0389ZM7.65901 21.1974V19.8193H2.14375V3.28868H7.65901V1.91056H1.45469C1.27194 1.91056 1.09667 1.98316 0.967447 2.11238C0.838223 2.2416 0.765625 2.41687 0.765625 2.59962V20.5084C0.765625 20.6911 0.838223 20.8664 0.967447 20.9956C1.09667 21.1248 1.27194 21.1974 1.45469 21.1974H7.65901Z" fill="#573C63"/>
</svg>
